# xmcd
#
# Track frame offsets: 
#        150
#        8762
#        24935
#        37397
#        52744
#        66465
#        80357
#        90135
#        105183
#        116295
#        125493
#        138898
#        152860
#        170846
#        193856
#        218641
#        244282
#        265270
#        283919
#        310416
#        331971
#
# Disc length: 4645 seconds
#
# Revision: 0
# Processed by: cddbd v1.5.2PL0 Copyright (c) Steve Scherf et al.
# Submitted via: ExactAudioCopy v0.90b4
#
DISCID=23122315
DTITLE=Ray Charles - Genius and Soul =Jazz - Complete 1956-1960 Session
DTITLE=s with Quincy Jones [CD2]
DYEAR=2011
DGENRE=R&B
TTITLE0=Alabamy Bound
TTITLE1=Georgia On My Mind
TTITLE2=Basin Street Blues
TTITLE3=Mississippi Mud
TTITLE4=Moonlight In Vermont
TTITLE5=New York's My Home
TTITLE6=California, Here I Come
TTITLE7=Moon Over Miami
TTITLE8=Deep In The Heart Of Texas
TTITLE9=Carry Me Back To Old Virginny (feat. The Raelettes)
TTITLE10=Blue Hawaii
TTITLE11=Chattanooga Choo-Choo
TTITLE12=The Ray
TTITLE13=Surrender Dear
TTITLE14=Hornful Soul
TTITLE15=Ain't Misbehavin'
TTITLE16=Joy Ride
TTITLE17=Sweet Sixteen Bars
TTITLE18=Doodlin'
TTITLE19=There's No You
TTITLE20=Undecided
EXTD=
EXTT0=
EXTT1=
EXTT2=
EXTT3=
EXTT4=
EXTT5=
EXTT6=
EXTT7=
EXTT8=
EXTT9=
EXTT10=
EXTT11=
EXTT12=
EXTT13=
EXTT14=
EXTT15=
EXTT16=
EXTT17=
EXTT18=
EXTT19=
EXTT20=
PLAYORDER=
